<mxfile host="app.diagrams.net" modified="2024-05-13T18:21:52.335Z" agent="Mozilla/5.0 (Macintosh; Intel Mac OS X 10_15_7) AppleWebKit/537.36 (KHTML, like Gecko) Chrome/124.0.0.0 Safari/537.36" etag="X4NYa4BZy6iu7XROENj_" version="24.3.1" type="google">
  <diagram name="Page-1" id="y16iFiVKCckuAnX3AgT8">
    <mxGraphModel grid="1" page="1" gridSize="10" guides="1" tooltips="1" connect="1" arrows="1" fold="1" pageScale="1" pageWidth="850" pageHeight="1100" math="0" shadow="0">
      <root>
        <mxCell id="0" />
        <mxCell id="1" parent="0" />
        <mxCell id="ooAJW0BC_u3k6ZQoTNX0-1" value="HuBERT&lt;div&gt;(Emotion)&lt;/div&gt;" style="rounded=1;whiteSpace=wrap;html=1;fillColor=#f8cecc;strokeColor=#b85450;" vertex="1" parent="1">
          <mxGeometry x="360" y="300" width="120" height="80" as="geometry" />
        </mxCell>
        <mxCell id="ooAJW0BC_u3k6ZQoTNX0-11" value="" style="shape=image;html=1;verticalAlign=top;verticalLabelPosition=bottom;labelBackgroundColor=#ffffff;imageAspect=0;aspect=fixed;image=https://cdn0.iconfinder.com/data/icons/phosphor-duotone-vol-3/256/speaker-low-duotone-128.png" vertex="1" parent="1">
          <mxGeometry x="260" y="320.5" width="39.5" height="39.5" as="geometry" />
        </mxCell>
        <mxCell id="ooAJW0BC_u3k6ZQoTNX0-12" value="&lt;font style=&quot;font-size: 10px;&quot;&gt;Audio Featurizer&lt;/font&gt;" style="rounded=1;whiteSpace=wrap;html=1;rotation=90;fillColor=#f5f5f5;fontColor=#333333;strokeColor=#666666;" vertex="1" parent="1">
          <mxGeometry x="288.13" y="330" width="83.75" height="20" as="geometry" />
        </mxCell>
        <mxCell id="ooAJW0BC_u3k6ZQoTNX0-15" value="" style="endArrow=classic;html=1;rounded=0;exitX=1;exitY=0.5;exitDx=0;exitDy=0;" edge="1" parent="1" source="ooAJW0BC_u3k6ZQoTNX0-1">
          <mxGeometry width="50" height="50" relative="1" as="geometry">
            <mxPoint x="490" y="390" as="sourcePoint" />
            <mxPoint x="500" y="340" as="targetPoint" />
          </mxGeometry>
        </mxCell>
        <mxCell id="ooAJW0BC_u3k6ZQoTNX0-18" value="" style="ellipse;whiteSpace=wrap;html=1;aspect=fixed;fillColor=#dae8fc;strokeColor=#6c8ebf;" vertex="1" parent="1">
          <mxGeometry x="540" y="305" width="10" height="10" as="geometry" />
        </mxCell>
        <mxCell id="ooAJW0BC_u3k6ZQoTNX0-19" value="" style="ellipse;whiteSpace=wrap;html=1;aspect=fixed;fillColor=#dae8fc;strokeColor=#6c8ebf;" vertex="1" parent="1">
          <mxGeometry x="540" y="365" width="10" height="10" as="geometry" />
        </mxCell>
        <mxCell id="ooAJW0BC_u3k6ZQoTNX0-20" value="" style="ellipse;whiteSpace=wrap;html=1;aspect=fixed;direction=south;fillColor=#dae8fc;strokeColor=#6c8ebf;" vertex="1" parent="1">
          <mxGeometry x="540" y="325" width="10" height="10" as="geometry" />
        </mxCell>
        <mxCell id="ooAJW0BC_u3k6ZQoTNX0-25" value="" style="ellipse;whiteSpace=wrap;html=1;aspect=fixed;direction=south;fillColor=#dae8fc;strokeColor=#6c8ebf;" vertex="1" parent="1">
          <mxGeometry x="540" y="345" width="10" height="10" as="geometry" />
        </mxCell>
        <mxCell id="ooAJW0BC_u3k6ZQoTNX0-26" value="" style="ellipse;whiteSpace=wrap;html=1;aspect=fixed;direction=south;fillColor=#dae8fc;strokeColor=#6c8ebf;" vertex="1" parent="1">
          <mxGeometry x="570" y="315.5" width="10" height="10" as="geometry" />
        </mxCell>
        <mxCell id="ooAJW0BC_u3k6ZQoTNX0-27" value="" style="ellipse;whiteSpace=wrap;html=1;aspect=fixed;direction=south;fillColor=#dae8fc;strokeColor=#6c8ebf;" vertex="1" parent="1">
          <mxGeometry x="570" y="335.25" width="10" height="10" as="geometry" />
        </mxCell>
        <mxCell id="ooAJW0BC_u3k6ZQoTNX0-28" value="" style="ellipse;whiteSpace=wrap;html=1;aspect=fixed;direction=south;fillColor=#dae8fc;strokeColor=#6c8ebf;" vertex="1" parent="1">
          <mxGeometry x="570" y="355" width="10" height="10" as="geometry" />
        </mxCell>
        <mxCell id="ooAJW0BC_u3k6ZQoTNX0-30" value="" style="ellipse;whiteSpace=wrap;html=1;aspect=fixed;direction=south;fillColor=#dae8fc;strokeColor=#6c8ebf;" vertex="1" parent="1">
          <mxGeometry x="600" y="325.5" width="10" height="10" as="geometry" />
        </mxCell>
        <mxCell id="ooAJW0BC_u3k6ZQoTNX0-31" value="" style="ellipse;whiteSpace=wrap;html=1;aspect=fixed;direction=south;fillColor=#dae8fc;strokeColor=#6c8ebf;" vertex="1" parent="1">
          <mxGeometry x="600" y="345.5" width="10" height="10" as="geometry" />
        </mxCell>
        <mxCell id="ooAJW0BC_u3k6ZQoTNX0-35" value="Classification&lt;div&gt;Head&lt;/div&gt;" style="rounded=1;whiteSpace=wrap;html=1;fillColor=#dae8fc;strokeColor=#6c8ebf;" vertex="1" parent="1">
          <mxGeometry x="535" y="260" width="80" height="30" as="geometry" />
        </mxCell>
        <mxCell id="ooAJW0BC_u3k6ZQoTNX0-46" value="&lt;font style=&quot;font-size: 8px;&quot;&gt;Class&lt;/font&gt;&lt;div style=&quot;font-size: 8px;&quot;&gt;&lt;font style=&quot;font-size: 8px;&quot;&gt;Labels&lt;/font&gt;&lt;/div&gt;" style="text;html=1;align=center;verticalAlign=middle;resizable=0;points=[];autosize=1;strokeColor=none;fillColor=none;" vertex="1" parent="1">
          <mxGeometry x="625" y="320" width="50" height="40" as="geometry" />
        </mxCell>
        <mxCell id="ooAJW0BC_u3k6ZQoTNX0-47" value="" style="endArrow=none;html=1;rounded=0;exitX=1;exitY=0.5;exitDx=0;exitDy=0;entryX=0.5;entryY=1;entryDx=0;entryDy=0;strokeWidth=0.5;fillColor=#dae8fc;strokeColor=#6c8ebf;" edge="1" parent="1" source="ooAJW0BC_u3k6ZQoTNX0-18" target="ooAJW0BC_u3k6ZQoTNX0-26">
          <mxGeometry width="50" height="50" relative="1" as="geometry">
            <mxPoint x="550" y="315.5" as="sourcePoint" />
            <mxPoint x="600" y="265.5" as="targetPoint" />
          </mxGeometry>
        </mxCell>
        <mxCell id="ooAJW0BC_u3k6ZQoTNX0-48" value="" style="endArrow=none;html=1;rounded=0;exitX=1;exitY=0.5;exitDx=0;exitDy=0;entryX=0.5;entryY=1;entryDx=0;entryDy=0;strokeWidth=0.5;fillColor=#dae8fc;strokeColor=#6c8ebf;" edge="1" parent="1" source="ooAJW0BC_u3k6ZQoTNX0-18" target="ooAJW0BC_u3k6ZQoTNX0-27">
          <mxGeometry width="50" height="50" relative="1" as="geometry">
            <mxPoint x="560" y="320" as="sourcePoint" />
            <mxPoint x="570" y="331" as="targetPoint" />
          </mxGeometry>
        </mxCell>
        <mxCell id="ooAJW0BC_u3k6ZQoTNX0-50" value="" style="endArrow=none;html=1;rounded=0;exitX=1;exitY=0.5;exitDx=0;exitDy=0;entryX=0.5;entryY=1;entryDx=0;entryDy=0;strokeWidth=0.5;fillColor=#dae8fc;strokeColor=#6c8ebf;" edge="1" parent="1" source="ooAJW0BC_u3k6ZQoTNX0-18" target="ooAJW0BC_u3k6ZQoTNX0-28">
          <mxGeometry width="50" height="50" relative="1" as="geometry">
            <mxPoint x="560" y="320" as="sourcePoint" />
            <mxPoint x="570" y="390" as="targetPoint" />
          </mxGeometry>
        </mxCell>
        <mxCell id="ooAJW0BC_u3k6ZQoTNX0-51" value="" style="endArrow=none;html=1;rounded=0;exitX=0.5;exitY=0;exitDx=0;exitDy=0;entryX=0.5;entryY=1;entryDx=0;entryDy=0;strokeWidth=0.5;fillColor=#dae8fc;strokeColor=#6c8ebf;" edge="1" parent="1" source="ooAJW0BC_u3k6ZQoTNX0-20" target="ooAJW0BC_u3k6ZQoTNX0-26">
          <mxGeometry width="50" height="50" relative="1" as="geometry">
            <mxPoint x="570" y="330" as="sourcePoint" />
            <mxPoint x="580" y="400" as="targetPoint" />
          </mxGeometry>
        </mxCell>
        <mxCell id="ooAJW0BC_u3k6ZQoTNX0-52" value="" style="endArrow=none;html=1;rounded=0;exitX=0.5;exitY=0;exitDx=0;exitDy=0;entryX=0.5;entryY=1;entryDx=0;entryDy=0;strokeWidth=0.5;fillColor=#dae8fc;strokeColor=#6c8ebf;" edge="1" parent="1" source="ooAJW0BC_u3k6ZQoTNX0-20" target="ooAJW0BC_u3k6ZQoTNX0-27">
          <mxGeometry width="50" height="50" relative="1" as="geometry">
            <mxPoint x="580" y="340" as="sourcePoint" />
            <mxPoint x="590" y="410" as="targetPoint" />
          </mxGeometry>
        </mxCell>
        <mxCell id="ooAJW0BC_u3k6ZQoTNX0-53" value="" style="endArrow=none;html=1;rounded=0;exitX=0.5;exitY=0;exitDx=0;exitDy=0;entryX=0.5;entryY=1;entryDx=0;entryDy=0;strokeWidth=0.5;fillColor=#dae8fc;strokeColor=#6c8ebf;" edge="1" parent="1" source="ooAJW0BC_u3k6ZQoTNX0-20" target="ooAJW0BC_u3k6ZQoTNX0-28">
          <mxGeometry width="50" height="50" relative="1" as="geometry">
            <mxPoint x="590" y="350" as="sourcePoint" />
            <mxPoint x="600" y="420" as="targetPoint" />
          </mxGeometry>
        </mxCell>
        <mxCell id="ooAJW0BC_u3k6ZQoTNX0-55" value="" style="endArrow=none;html=1;rounded=0;exitX=0.5;exitY=0;exitDx=0;exitDy=0;entryX=0.5;entryY=1;entryDx=0;entryDy=0;strokeWidth=0.5;fillColor=#dae8fc;strokeColor=#6c8ebf;" edge="1" parent="1" source="ooAJW0BC_u3k6ZQoTNX0-25" target="ooAJW0BC_u3k6ZQoTNX0-26">
          <mxGeometry width="50" height="50" relative="1" as="geometry">
            <mxPoint x="560" y="340" as="sourcePoint" />
            <mxPoint x="570" y="350" as="targetPoint" />
          </mxGeometry>
        </mxCell>
        <mxCell id="ooAJW0BC_u3k6ZQoTNX0-56" value="" style="endArrow=none;html=1;rounded=0;exitX=0.5;exitY=0;exitDx=0;exitDy=0;entryX=0.5;entryY=1;entryDx=0;entryDy=0;strokeWidth=0.5;fillColor=#dae8fc;strokeColor=#6c8ebf;" edge="1" parent="1" source="ooAJW0BC_u3k6ZQoTNX0-25" target="ooAJW0BC_u3k6ZQoTNX0-27">
          <mxGeometry width="50" height="50" relative="1" as="geometry">
            <mxPoint x="570" y="350" as="sourcePoint" />
            <mxPoint x="580" y="360" as="targetPoint" />
          </mxGeometry>
        </mxCell>
        <mxCell id="ooAJW0BC_u3k6ZQoTNX0-57" value="" style="endArrow=none;html=1;rounded=0;exitX=0.5;exitY=0;exitDx=0;exitDy=0;entryX=0.5;entryY=1;entryDx=0;entryDy=0;strokeWidth=0.5;fillColor=#dae8fc;strokeColor=#6c8ebf;" edge="1" parent="1" source="ooAJW0BC_u3k6ZQoTNX0-25" target="ooAJW0BC_u3k6ZQoTNX0-28">
          <mxGeometry width="50" height="50" relative="1" as="geometry">
            <mxPoint x="580" y="360" as="sourcePoint" />
            <mxPoint x="590" y="370" as="targetPoint" />
          </mxGeometry>
        </mxCell>
        <mxCell id="ooAJW0BC_u3k6ZQoTNX0-59" value="" style="endArrow=none;html=1;rounded=0;exitX=1;exitY=0.5;exitDx=0;exitDy=0;strokeWidth=0.5;fillColor=#dae8fc;strokeColor=#6c8ebf;entryX=0.5;entryY=1;entryDx=0;entryDy=0;" edge="1" parent="1" source="ooAJW0BC_u3k6ZQoTNX0-19" target="ooAJW0BC_u3k6ZQoTNX0-27">
          <mxGeometry width="50" height="50" relative="1" as="geometry">
            <mxPoint x="560" y="360" as="sourcePoint" />
            <mxPoint x="580" y="390" as="targetPoint" />
          </mxGeometry>
        </mxCell>
        <mxCell id="ooAJW0BC_u3k6ZQoTNX0-60" value="" style="endArrow=none;html=1;rounded=0;exitX=1;exitY=0.5;exitDx=0;exitDy=0;strokeWidth=0.5;fillColor=#dae8fc;strokeColor=#6c8ebf;entryX=0.5;entryY=1;entryDx=0;entryDy=0;" edge="1" parent="1" source="ooAJW0BC_u3k6ZQoTNX0-19" target="ooAJW0BC_u3k6ZQoTNX0-26">
          <mxGeometry width="50" height="50" relative="1" as="geometry">
            <mxPoint x="560" y="360" as="sourcePoint" />
            <mxPoint x="580" y="390" as="targetPoint" />
          </mxGeometry>
        </mxCell>
        <mxCell id="ooAJW0BC_u3k6ZQoTNX0-61" value="" style="endArrow=none;html=1;rounded=0;exitX=1;exitY=0.5;exitDx=0;exitDy=0;strokeWidth=0.5;fillColor=#dae8fc;strokeColor=#6c8ebf;entryX=0.5;entryY=1;entryDx=0;entryDy=0;" edge="1" parent="1" source="ooAJW0BC_u3k6ZQoTNX0-19" target="ooAJW0BC_u3k6ZQoTNX0-28">
          <mxGeometry width="50" height="50" relative="1" as="geometry">
            <mxPoint x="570" y="370" as="sourcePoint" />
            <mxPoint x="590" y="400" as="targetPoint" />
          </mxGeometry>
        </mxCell>
        <mxCell id="ooAJW0BC_u3k6ZQoTNX0-69" value="" style="endArrow=none;html=1;rounded=0;exitX=0.5;exitY=0;exitDx=0;exitDy=0;strokeWidth=0.5;fillColor=#dae8fc;strokeColor=#6c8ebf;entryX=0.5;entryY=1;entryDx=0;entryDy=0;" edge="1" parent="1" source="ooAJW0BC_u3k6ZQoTNX0-26" target="ooAJW0BC_u3k6ZQoTNX0-30">
          <mxGeometry width="50" height="50" relative="1" as="geometry">
            <mxPoint x="560" y="400" as="sourcePoint" />
            <mxPoint x="580" y="390" as="targetPoint" />
          </mxGeometry>
        </mxCell>
        <mxCell id="ooAJW0BC_u3k6ZQoTNX0-70" value="" style="endArrow=none;html=1;rounded=0;exitX=0.5;exitY=0;exitDx=0;exitDy=0;strokeWidth=0.5;fillColor=#dae8fc;strokeColor=#6c8ebf;entryX=0.5;entryY=1;entryDx=0;entryDy=0;" edge="1" parent="1" source="ooAJW0BC_u3k6ZQoTNX0-26" target="ooAJW0BC_u3k6ZQoTNX0-31">
          <mxGeometry width="50" height="50" relative="1" as="geometry">
            <mxPoint x="580" y="330.5" as="sourcePoint" />
            <mxPoint x="600" y="340.5" as="targetPoint" />
          </mxGeometry>
        </mxCell>
        <mxCell id="ooAJW0BC_u3k6ZQoTNX0-75" value="" style="endArrow=none;html=1;rounded=0;exitX=0.5;exitY=0;exitDx=0;exitDy=0;strokeWidth=0.5;fillColor=#dae8fc;strokeColor=#6c8ebf;entryX=0.5;entryY=1;entryDx=0;entryDy=0;" edge="1" parent="1" source="ooAJW0BC_u3k6ZQoTNX0-27" target="ooAJW0BC_u3k6ZQoTNX0-31">
          <mxGeometry width="50" height="50" relative="1" as="geometry">
            <mxPoint x="590" y="331" as="sourcePoint" />
            <mxPoint x="610" y="381" as="targetPoint" />
          </mxGeometry>
        </mxCell>
        <mxCell id="ooAJW0BC_u3k6ZQoTNX0-77" value="" style="endArrow=none;html=1;rounded=0;exitX=0.5;exitY=0;exitDx=0;exitDy=0;strokeWidth=0.5;fillColor=#dae8fc;strokeColor=#6c8ebf;entryX=0.5;entryY=1;entryDx=0;entryDy=0;" edge="1" parent="1" source="ooAJW0BC_u3k6ZQoTNX0-28" target="ooAJW0BC_u3k6ZQoTNX0-31">
          <mxGeometry width="50" height="50" relative="1" as="geometry">
            <mxPoint x="590" y="350" as="sourcePoint" />
            <mxPoint x="610" y="361" as="targetPoint" />
          </mxGeometry>
        </mxCell>
        <mxCell id="ooAJW0BC_u3k6ZQoTNX0-82" value="" style="endArrow=classic;html=1;rounded=0;" edge="1" parent="1">
          <mxGeometry width="50" height="50" relative="1" as="geometry">
            <mxPoint x="615" y="340" as="sourcePoint" />
            <mxPoint x="635" y="340" as="targetPoint" />
          </mxGeometry>
        </mxCell>
        <mxCell id="ooAJW0BC_u3k6ZQoTNX0-83" value="" style="endArrow=classic;html=1;rounded=0;" edge="1" parent="1">
          <mxGeometry width="50" height="50" relative="1" as="geometry">
            <mxPoint x="520" y="340" as="sourcePoint" />
            <mxPoint x="540" y="340" as="targetPoint" />
          </mxGeometry>
        </mxCell>
        <mxCell id="ooAJW0BC_u3k6ZQoTNX0-84" value="" style="endArrow=classic;html=1;rounded=0;exitX=1;exitY=0.5;exitDx=0;exitDy=0;" edge="1" parent="1">
          <mxGeometry width="50" height="50" relative="1" as="geometry">
            <mxPoint x="340" y="339.77" as="sourcePoint" />
            <mxPoint x="360" y="339.77" as="targetPoint" />
          </mxGeometry>
        </mxCell>
        <mxCell id="ooAJW0BC_u3k6ZQoTNX0-89" value="" style="endArrow=classic;html=1;rounded=0;exitX=1;exitY=0.5;exitDx=0;exitDy=0;" edge="1" parent="1">
          <mxGeometry width="50" height="50" relative="1" as="geometry">
            <mxPoint x="300" y="339.77" as="sourcePoint" />
            <mxPoint x="320" y="339.77" as="targetPoint" />
          </mxGeometry>
        </mxCell>
        <mxCell id="ooAJW0BC_u3k6ZQoTNX0-90" value="" style="endArrow=none;html=1;rounded=0;exitX=0.5;exitY=0;exitDx=0;exitDy=0;strokeWidth=0.5;fillColor=#dae8fc;strokeColor=#6c8ebf;entryX=0.5;entryY=1;entryDx=0;entryDy=0;" edge="1" parent="1" source="ooAJW0BC_u3k6ZQoTNX0-27" target="ooAJW0BC_u3k6ZQoTNX0-30">
          <mxGeometry width="50" height="50" relative="1" as="geometry">
            <mxPoint x="590" y="350" as="sourcePoint" />
            <mxPoint x="610" y="361" as="targetPoint" />
          </mxGeometry>
        </mxCell>
        <mxCell id="ooAJW0BC_u3k6ZQoTNX0-91" value="" style="endArrow=none;html=1;rounded=0;strokeWidth=0.5;fillColor=#dae8fc;strokeColor=#6c8ebf;entryX=0.5;entryY=1;entryDx=0;entryDy=0;exitX=0.5;exitY=0;exitDx=0;exitDy=0;" edge="1" parent="1" source="ooAJW0BC_u3k6ZQoTNX0-28" target="ooAJW0BC_u3k6ZQoTNX0-30">
          <mxGeometry width="50" height="50" relative="1" as="geometry">
            <mxPoint x="590" y="380" as="sourcePoint" />
            <mxPoint x="620" y="371" as="targetPoint" />
          </mxGeometry>
        </mxCell>
        <mxCell id="ooAJW0BC_u3k6ZQoTNX0-80" value="..." style="rounded=0;whiteSpace=wrap;html=1;strokeColor=none;" vertex="1" parent="1">
          <mxGeometry x="585" y="306.5" width="10" height="60" as="geometry" />
        </mxCell>
        <mxCell id="ooAJW0BC_u3k6ZQoTNX0-4" value="" style="rounded=0;whiteSpace=wrap;html=1;fillColor=#f5f5f5;fontColor=#333333;strokeColor=#666666;" vertex="1" parent="1">
          <mxGeometry x="505" y="310" width="10" height="10" as="geometry" />
        </mxCell>
        <mxCell id="ooAJW0BC_u3k6ZQoTNX0-5" value="" style="rounded=0;whiteSpace=wrap;html=1;fillColor=#f5f5f5;fontColor=#333333;strokeColor=#666666;" vertex="1" parent="1">
          <mxGeometry x="505" y="320" width="10" height="10" as="geometry" />
        </mxCell>
        <mxCell id="ooAJW0BC_u3k6ZQoTNX0-6" value="" style="rounded=0;whiteSpace=wrap;html=1;fillColor=#f5f5f5;fontColor=#333333;strokeColor=#666666;" vertex="1" parent="1">
          <mxGeometry x="505" y="330" width="10" height="10" as="geometry" />
        </mxCell>
        <mxCell id="ooAJW0BC_u3k6ZQoTNX0-7" value="" style="rounded=0;whiteSpace=wrap;html=1;fillColor=#f5f5f5;fontColor=#333333;strokeColor=#666666;" vertex="1" parent="1">
          <mxGeometry x="505" y="340" width="10" height="10" as="geometry" />
        </mxCell>
        <mxCell id="ooAJW0BC_u3k6ZQoTNX0-8" value="" style="rounded=0;whiteSpace=wrap;html=1;fillColor=#f5f5f5;fontColor=#333333;strokeColor=#666666;" vertex="1" parent="1">
          <mxGeometry x="505" y="350" width="10" height="10" as="geometry" />
        </mxCell>
        <mxCell id="ooAJW0BC_u3k6ZQoTNX0-9" value="" style="rounded=0;whiteSpace=wrap;html=1;fillColor=#f5f5f5;fontColor=#333333;strokeColor=#666666;" vertex="1" parent="1">
          <mxGeometry x="505" y="360" width="10" height="10" as="geometry" />
        </mxCell>
        <mxCell id="ooAJW0BC_u3k6ZQoTNX0-92" value="&lt;p style=&quot;line-height: 80%;&quot;&gt;&lt;span style=&quot;font-size: 8px;&quot;&gt;Pooled&lt;br&gt;Output&lt;/span&gt;&lt;/p&gt;" style="text;html=1;align=center;verticalAlign=middle;resizable=0;points=[];autosize=1;strokeColor=none;fillColor=none;" vertex="1" parent="1">
          <mxGeometry x="485" y="265" width="50" height="60" as="geometry" />
        </mxCell>
        <mxCell id="ooAJW0BC_u3k6ZQoTNX0-93" value="&lt;p style=&quot;line-height: 80%;&quot;&gt;&lt;span style=&quot;font-size: 8px;&quot;&gt;Emotion&lt;br&gt;Audio&lt;/span&gt;&lt;/p&gt;" style="text;html=1;align=center;verticalAlign=middle;resizable=0;points=[];autosize=1;strokeColor=none;fillColor=none;" vertex="1" parent="1">
          <mxGeometry x="249.5" y="279" width="50" height="60" as="geometry" />
        </mxCell>
        <mxCell id="ooAJW0BC_u3k6ZQoTNX0-94" value="&lt;font color=&quot;#ffffff&quot;&gt;HuBERT&lt;/font&gt;&lt;div&gt;&lt;font color=&quot;#ffffff&quot;&gt;(Sarcasm)&lt;/font&gt;&lt;/div&gt;" style="rounded=1;whiteSpace=wrap;html=1;fillColor=#C45955;strokeColor=#8F413E;" vertex="1" parent="1">
          <mxGeometry x="360.18" y="420" width="120" height="40" as="geometry" />
        </mxCell>
        <mxCell id="ooAJW0BC_u3k6ZQoTNX0-96" value="" style="rounded=1;whiteSpace=wrap;html=1;rotation=90;fillColor=#D4D4D4;fontColor=#333333;strokeColor=#404040;" vertex="1" parent="1">
          <mxGeometry x="309.5" y="428.81" width="41.37" height="20" as="geometry" />
        </mxCell>
        <mxCell id="ooAJW0BC_u3k6ZQoTNX0-97" value="" style="endArrow=classic;html=1;rounded=0;exitX=1;exitY=0.5;exitDx=0;exitDy=0;" edge="1" parent="1" source="ooAJW0BC_u3k6ZQoTNX0-94">
          <mxGeometry width="50" height="50" relative="1" as="geometry">
            <mxPoint x="490.18" y="510" as="sourcePoint" />
            <mxPoint x="499.68" y="440" as="targetPoint" />
          </mxGeometry>
        </mxCell>
        <mxCell id="ooAJW0BC_u3k6ZQoTNX0-127" value="" style="endArrow=classic;html=1;rounded=0;exitX=1;exitY=0.5;exitDx=0;exitDy=0;" edge="1" parent="1">
          <mxGeometry width="50" height="50" relative="1" as="geometry">
            <mxPoint x="340.18" y="439.77" as="sourcePoint" />
            <mxPoint x="360.18" y="439.77" as="targetPoint" />
          </mxGeometry>
        </mxCell>
        <mxCell id="ooAJW0BC_u3k6ZQoTNX0-128" value="" style="endArrow=classic;html=1;rounded=0;exitX=1;exitY=0.5;exitDx=0;exitDy=0;" edge="1" parent="1">
          <mxGeometry width="50" height="50" relative="1" as="geometry">
            <mxPoint x="300.18" y="439.77" as="sourcePoint" />
            <mxPoint x="320.18" y="439.77" as="targetPoint" />
          </mxGeometry>
        </mxCell>
        <mxCell id="ooAJW0BC_u3k6ZQoTNX0-132" value="" style="rounded=0;whiteSpace=wrap;html=1;fillColor=#D9D9D9;fontColor=#333333;strokeColor=#525252;" vertex="1" parent="1">
          <mxGeometry x="505.18" y="420" width="10" height="10" as="geometry" />
        </mxCell>
        <mxCell id="ooAJW0BC_u3k6ZQoTNX0-133" value="" style="rounded=0;whiteSpace=wrap;html=1;fillColor=#D9D9D9;fontColor=#333333;strokeColor=#525252;" vertex="1" parent="1">
          <mxGeometry x="505.18" y="430" width="10" height="10" as="geometry" />
        </mxCell>
        <mxCell id="ooAJW0BC_u3k6ZQoTNX0-134" value="" style="rounded=0;whiteSpace=wrap;html=1;fillColor=#D9D9D9;fontColor=#333333;strokeColor=#525252;" vertex="1" parent="1">
          <mxGeometry x="505.18" y="440" width="10" height="10" as="geometry" />
        </mxCell>
        <mxCell id="ooAJW0BC_u3k6ZQoTNX0-135" value="" style="rounded=0;whiteSpace=wrap;html=1;fillColor=#D9D9D9;fontColor=#333333;strokeColor=#525252;" vertex="1" parent="1">
          <mxGeometry x="505.18" y="450" width="10" height="10" as="geometry" />
        </mxCell>
        <mxCell id="ooAJW0BC_u3k6ZQoTNX0-140" value="..." style="text;html=1;align=center;verticalAlign=middle;resizable=0;points=[];autosize=1;strokeColor=none;fillColor=none;" vertex="1" parent="1">
          <mxGeometry x="537" y="421" width="30" height="30" as="geometry" />
        </mxCell>
        <mxCell id="ooAJW0BC_u3k6ZQoTNX0-141" value="" style="shape=flexArrow;endArrow=classic;startArrow=classic;html=1;rounded=0;entryX=0.5;entryY=1;entryDx=0;entryDy=0;exitX=0.5;exitY=0;exitDx=0;exitDy=0;strokeColor=#82b366;endSize=3;startSize=3;fillColor=#d5e8d4;endWidth=9.268292682926829;startWidth=7.154471544715447;" edge="1" parent="1" source="ooAJW0BC_u3k6ZQoTNX0-94" target="ooAJW0BC_u3k6ZQoTNX0-1">
          <mxGeometry width="100" height="100" relative="1" as="geometry">
            <mxPoint x="490" y="490" as="sourcePoint" />
            <mxPoint x="590" y="390" as="targetPoint" />
          </mxGeometry>
        </mxCell>
        <mxCell id="ooAJW0BC_u3k6ZQoTNX0-142" value="&lt;font style=&quot;font-size: 10px;&quot;&gt;Transfer Learning&lt;/font&gt;" style="rounded=1;whiteSpace=wrap;html=1;fillColor=#d5e8d4;strokeColor=#82b366;" vertex="1" parent="1">
          <mxGeometry x="440" y="392" width="90" height="15" as="geometry" />
        </mxCell>
        <mxCell id="ooAJW0BC_u3k6ZQoTNX0-143" value="" style="shape=image;html=1;verticalAlign=top;verticalLabelPosition=bottom;labelBackgroundColor=#ffffff;imageAspect=0;aspect=fixed;image=https://cdn0.iconfinder.com/data/icons/phosphor-duotone-vol-3/256/speaker-low-duotone-128.png" vertex="1" parent="1">
          <mxGeometry x="260" y="419.06" width="39.5" height="39.5" as="geometry" />
        </mxCell>
        <mxCell id="ooAJW0BC_u3k6ZQoTNX0-145" value="" style="endArrow=classic;html=1;rounded=0;" edge="1" parent="1">
          <mxGeometry width="50" height="50" relative="1" as="geometry">
            <mxPoint x="520" y="440" as="sourcePoint" />
            <mxPoint x="540" y="440" as="targetPoint" />
          </mxGeometry>
        </mxCell>
        <mxCell id="ooAJW0BC_u3k6ZQoTNX0-146" value="&lt;p style=&quot;line-height: 80%;&quot;&gt;&lt;span style=&quot;font-size: 8px;&quot;&gt;Sarcasm&lt;br&gt;Audio&lt;/span&gt;&lt;/p&gt;" style="text;html=1;align=center;verticalAlign=middle;resizable=0;points=[];autosize=1;strokeColor=none;fillColor=none;" vertex="1" parent="1">
          <mxGeometry x="244.5" y="380" width="60" height="60" as="geometry" />
        </mxCell>
      </root>
    </mxGraphModel>
  </diagram>
</mxfile>
